<svg width="200" height="40" viewBox="0 0 200 40" fill="none" xmlns="http://www.w3.org/2000/svg">
<mask id="mask0_37_753" style="mask-type:luminance" maskUnits="userSpaceOnUse" x="0" y="0" width="200" height="40">
<path d="M199.852 0H0V40H199.852V0Z" fill="white"/>
</mask>
<g mask="url(#mask0_37_753)">
<path d="M165.421 17.2161V17.1272C169.01 16.4599 171.165 14.4571 171.165 11.6092V8.98999H165.242V17.2161H149.697V17.1272C153.286 16.4599 155.44 14.4571 155.44 11.6092V8.98999H149.518V17.2161H145.928V21.2656H149.162V32.791C149.162 37.3308 151.99 39.9992 156.789 39.9992C158.472 39.9964 160.136 39.6483 161.679 38.9762V34.6151C160.749 35.0906 159.718 35.3349 158.674 35.3272C156.431 35.3272 155.084 34.1256 155.084 32.0339V21.2656H164.882V32.791C164.882 37.3308 167.709 39.9992 172.509 39.9992C174.192 39.9965 175.856 39.6484 177.399 38.9762V34.6151C176.469 35.0907 175.439 35.3351 174.394 35.3272C172.151 35.3272 170.805 34.1256 170.805 32.0339V21.2656H177.803V17.2161H165.421Z" fill="white"/>
<path d="M80.1185 8.98999H74.1958V14.552H80.1185V8.98999Z" fill="white"/>
<path d="M80.1185 17.2161H74.1958V39.5546H80.1185V17.2161Z" fill="white"/>
<path d="M101.511 8.98901V39.5536H107.434V28.1214H107.524L117.394 39.5536H124.664L114.078 27.8513L123.63 17.216H116.63L107.522 27.7167H107.432V8.98901H101.511Z" fill="white"/>
<path d="M189.621 40C196.037 40 199.851 37.241 199.851 32.6571C199.851 27.4068 195.005 26.6049 191.013 25.9384C188.141 25.4472 185.678 25.0475 185.678 23.0448C185.678 21.3985 187.158 20.4196 189.625 20.4196C192.227 20.4196 193.707 21.7542 193.707 24.1126H199.225C199.225 19.4839 195.636 16.7698 189.624 16.7698C183.567 16.7698 179.978 19.3103 179.978 23.5334C179.978 28.6508 184.644 29.4079 188.547 30.0303C191.511 30.5197 194.155 30.9618 194.155 33.3236C194.155 35.1934 192.495 36.2604 189.624 36.2604C186.66 36.2604 184.913 34.7929 184.913 32.3006H179.395C179.395 37.1504 183.164 39.9983 189.625 39.9983" fill="white"/>
<path d="M139.144 25.913H128.924C129.573 22.889 131.389 21.1767 134.074 21.1767C136.716 21.1767 138.53 22.889 139.144 25.913ZM128.689 29.0531H145.109V28.3858C145.109 21.0429 140.982 16.7715 134.074 16.7715C127.074 16.7715 122.946 21.0429 122.946 28.3858C122.946 35.6837 127.074 40 134.074 40C140.171 40 144.302 36.8854 145.109 31.5893H139.367C139.107 32.7748 138.429 33.8272 137.457 34.5544C136.485 35.2815 135.284 35.6349 134.074 35.5499C130.887 35.5499 128.914 33.1475 128.689 29.0531Z" fill="white"/>
<path d="M61.9524 16.7715C57.1848 16.7715 54.1895 19.5 53.894 24.1101H53.8322V8.98999H47.9111V39.5546H53.8322V32.741H53.8991C54.2378 37.3207 57.2254 40 61.9524 40C67.605 40 70.9703 35.6812 70.9703 28.3858C70.9703 21.0903 67.605 16.7715 61.9524 16.7715ZM59.7998 35.3281C56.5242 35.3281 54.5994 32.4794 54.5994 28.3841C54.5994 24.2456 56.5242 21.3977 59.7998 21.3977C63.0753 21.3977 64.9985 24.0229 64.9985 28.3841C64.9985 32.7453 63.0745 35.3281 59.7998 35.3281Z" fill="white"/>
<path d="M11.3213 0H0V39.5537H11.3213V0Z" fill="white"/>
<path d="M14.4215 39.5072C21.2732 38.237 25.3837 34.4101 25.3837 28.9743V17.2212H14.0793V39.5538L14.4215 39.5072Z" fill="white"/>
<path d="M98.4965 22.6536L99.4771 17.1991C98.5873 16.9104 97.657 16.7658 96.7215 16.7706C92.8261 16.7706 90.2907 19.7582 89.8868 24.9332H89.8123V17.2169H83.8904V39.5554H89.8123V29.4536C89.8123 24.7368 91.8768 21.9337 95.3302 21.9337C96.4266 21.9397 97.5048 22.2144 98.4703 22.734L98.4965 22.6536Z" fill="white"/>
</g>
</svg>
