<svg width="155" height="47" viewBox="0 0 155 47" fill="none" xmlns="http://www.w3.org/2000/svg">
<g clip-path="url(#clip0_107_2)">
<path d="M13.369 0H0V46.708H13.369V0Z" fill="white"/>
<path d="M17.03 46.653C25.121 45.153 29.975 40.634 29.975 34.215V20.336H16.626V46.708L17.03 46.653Z" fill="white"/>
</g>
<path d="M49.668 32.0234H55.6562V40.332C54.7578 40.6367 53.832 40.8633 52.8789 41.0117C51.9336 41.1602 50.875 41.2344 49.7031 41.2344C47.9219 41.2344 46.418 40.8789 45.1914 40.168C43.9727 39.457 43.0469 38.4453 42.4141 37.1328C41.7812 35.8125 41.4648 34.2461 41.4648 32.4336C41.4648 30.6602 41.8125 29.1133 42.5078 27.793C43.2109 26.4727 44.2227 25.4492 45.543 24.7227C46.8711 23.9883 48.4648 23.6211 50.3242 23.6211C51.2773 23.6211 52.1797 23.7109 53.0312 23.8906C53.8906 24.0625 54.6875 24.3086 55.4219 24.6289L54.6602 26.3633C54.0273 26.0898 53.3281 25.8555 52.5625 25.6602C51.8047 25.4648 51.0195 25.3672 50.207 25.3672C48.8086 25.3672 47.6094 25.6562 46.6094 26.2344C45.6172 26.8125 44.8555 27.6289 44.3242 28.6836C43.8008 29.7383 43.5391 30.9883 43.5391 32.4336C43.5391 33.8633 43.7695 35.1094 44.2305 36.1719C44.6914 37.2266 45.4102 38.0469 46.3867 38.6328C47.3633 39.2188 48.6211 39.5117 50.1602 39.5117C50.9336 39.5117 51.5977 39.4688 52.1523 39.3828C52.707 39.2891 53.2109 39.1797 53.6641 39.0547V33.8047H49.668V32.0234ZM66.6489 25.3789C65.7036 25.3789 64.852 25.543 64.0942 25.8711C63.3442 26.1914 62.7036 26.6602 62.1723 27.2773C61.6489 27.8867 61.2466 28.625 60.9653 29.4922C60.6841 30.3594 60.5434 31.3359 60.5434 32.4219C60.5434 33.8594 60.7661 35.1094 61.2114 36.1719C61.6645 37.2266 62.3364 38.043 63.227 38.6211C64.1255 39.1992 65.2466 39.4883 66.5903 39.4883C67.3559 39.4883 68.0747 39.4258 68.7466 39.3008C69.4263 39.168 70.0864 39.0039 70.727 38.8086V40.543C70.102 40.7773 69.4458 40.9492 68.7583 41.0586C68.0708 41.1758 67.2544 41.2344 66.3091 41.2344C64.5669 41.2344 63.1098 40.875 61.938 40.1562C60.7739 39.4297 59.8989 38.4062 59.313 37.0859C58.7348 35.7656 58.4458 34.207 58.4458 32.4102C58.4458 31.1133 58.6255 29.9297 58.9848 28.8594C59.352 27.7812 59.8833 26.8516 60.5786 26.0703C61.2817 25.2891 62.1411 24.6875 63.1567 24.2656C64.1802 23.8359 65.352 23.6211 66.6723 23.6211C67.5395 23.6211 68.3755 23.707 69.1802 23.8789C69.9848 24.0508 70.7114 24.2969 71.3598 24.6172L70.563 26.3047C70.0161 26.0547 69.4145 25.8398 68.7583 25.6602C68.1098 25.4727 67.4067 25.3789 66.6489 25.3789Z" fill="#CBEEF3"/>
<path d="M81.7084 41H79.7163V23.8672H89.2553V25.625H81.7084V31.9062H88.7983V33.6523H81.7084V41ZM102.416 34.5547C102.416 35.6094 102.279 36.5508 102.006 37.3789C101.732 38.207 101.338 38.9062 100.822 39.4766C100.307 40.0469 99.6816 40.4844 98.9472 40.7891C98.2206 41.0859 97.3964 41.2344 96.4745 41.2344C95.6152 41.2344 94.8261 41.0859 94.1073 40.7891C93.3964 40.4844 92.7792 40.0469 92.2558 39.4766C91.7402 38.9062 91.3378 38.207 91.0488 37.3789C90.7675 36.5508 90.6269 35.6094 90.6269 34.5547C90.6269 33.1484 90.8652 31.9531 91.3417 30.9688C91.8183 29.9766 92.498 29.2227 93.3808 28.707C94.2714 28.1836 95.33 27.9219 96.5566 27.9219C97.7284 27.9219 98.7519 28.1836 99.6269 28.707C100.51 29.2305 101.193 29.9883 101.678 30.9805C102.17 31.9648 102.416 33.1562 102.416 34.5547ZM92.6425 34.5547C92.6425 35.5859 92.7792 36.4805 93.0527 37.2383C93.3261 37.9961 93.748 38.582 94.3183 38.9961C94.8886 39.4102 95.623 39.6172 96.5214 39.6172C97.412 39.6172 98.1425 39.4102 98.7128 38.9961C99.2909 38.582 99.7167 37.9961 99.9902 37.2383C100.264 36.4805 100.4 35.5859 100.4 34.5547C100.4 33.5312 100.264 32.6484 99.9902 31.9062C99.7167 31.1562 99.2948 30.5781 98.7245 30.1719C98.1542 29.7656 97.4159 29.5625 96.5097 29.5625C95.1738 29.5625 94.1933 30.0039 93.5683 30.8867C92.9511 31.7695 92.6425 32.9922 92.6425 34.5547ZM111.135 27.9219C111.393 27.9219 111.662 27.9375 111.944 27.9688C112.225 27.9922 112.475 28.0273 112.694 28.0742L112.448 29.8789C112.237 29.8242 112.002 29.7812 111.745 29.75C111.487 29.7188 111.245 29.7031 111.018 29.7031C110.502 29.7031 110.014 29.8086 109.553 30.0195C109.1 30.2227 108.702 30.5195 108.358 30.9102C108.014 31.293 107.745 31.7578 107.549 32.3047C107.354 32.8438 107.256 33.4453 107.256 34.1094V41H105.299V28.1562H106.916L107.127 30.5234H107.209C107.475 30.0469 107.795 29.6133 108.17 29.2227C108.545 28.8242 108.979 28.5078 109.471 28.2734C109.971 28.0391 110.526 27.9219 111.135 27.9219ZM125.245 28.1562V41H123.651L123.37 39.1953H123.265C122.999 39.6406 122.655 40.0156 122.233 40.3203C121.811 40.625 121.335 40.8516 120.804 41C120.28 41.1562 119.722 41.2344 119.128 41.2344C118.112 41.2344 117.261 41.0703 116.573 40.7422C115.886 40.4141 115.366 39.9062 115.015 39.2188C114.671 38.5312 114.499 37.6484 114.499 36.5703V28.1562H116.468V36.4297C116.468 37.5 116.71 38.3008 117.194 38.832C117.679 39.3555 118.417 39.6172 119.409 39.6172C120.362 39.6172 121.12 39.4375 121.683 39.0781C122.253 38.7188 122.663 38.1914 122.913 37.4961C123.163 36.793 123.288 35.9336 123.288 34.918V28.1562H125.245ZM142.824 27.9219C144.238 27.9219 145.304 28.293 146.023 29.0352C146.742 29.7695 147.101 30.9531 147.101 32.5859V41H145.179V32.6797C145.179 31.6406 144.952 30.8633 144.499 30.3477C144.054 29.8242 143.39 29.5625 142.507 29.5625C141.265 29.5625 140.363 29.9219 139.8 30.6406C139.238 31.3594 138.956 32.418 138.956 33.8164V41H137.023V32.6797C137.023 31.9844 136.921 31.4062 136.718 30.9453C136.523 30.4844 136.226 30.1406 135.827 29.9141C135.437 29.6797 134.941 29.5625 134.339 29.5625C133.488 29.5625 132.804 29.7383 132.288 30.0898C131.773 30.4414 131.398 30.9648 131.163 31.6602C130.937 32.3477 130.824 33.1953 130.824 34.2031V41H128.878V28.1562H130.449L130.742 29.9727H130.847C131.105 29.5273 131.429 29.1523 131.82 28.8477C132.21 28.543 132.648 28.3125 133.132 28.1562C133.617 28 134.132 27.9219 134.679 27.9219C135.656 27.9219 136.472 28.1055 137.128 28.4727C137.792 28.832 138.273 29.3828 138.57 30.125H138.675C139.097 29.3828 139.675 28.832 140.41 28.4727C141.144 28.1055 141.949 27.9219 142.824 27.9219Z" fill="white"/>
<path d="M150.324 39.7812C150.324 39.2344 150.457 38.8477 150.723 38.6211C150.988 38.3867 151.312 38.2695 151.695 38.2695C152.094 38.2695 152.43 38.3867 152.703 38.6211C152.976 38.8477 153.113 39.2344 153.113 39.7812C153.113 40.3203 152.976 40.7148 152.703 40.9648C152.43 41.207 152.094 41.3281 151.695 41.3281C151.312 41.3281 150.988 41.207 150.723 40.9648C150.457 40.7148 150.324 40.3203 150.324 39.7812Z" fill="#237781"/>
<defs>
<clipPath id="clip0_107_2">
<rect width="30" height="47" fill="white"/>
</clipPath>
</defs>
</svg>
